<svg width="14" height="14" viewBox="0 0 14 14" fill="none" xmlns="http://www.w3.org/2000/svg">
<path d="M6.66667 13.3333C2.98467 13.3333 0 10.3487 0 6.66667C0 2.98467 2.98467 0 6.66667 0C10.3487 0 13.3333 2.98467 13.3333 6.66667C13.3333 10.3487 10.3487 13.3333 6.66667 13.3333ZM5.748 4.27667C5.70788 4.2499 5.66125 4.23451 5.61307 4.23215C5.5649 4.22978 5.51698 4.24053 5.47443 4.26324C5.43188 4.28595 5.39629 4.31978 5.37144 4.36112C5.34659 4.40246 5.33342 4.44977 5.33333 4.498V8.83533C5.33342 8.88357 5.34659 8.93087 5.37144 8.97221C5.39629 9.01355 5.43188 9.04738 5.47443 9.07009C5.51698 9.0928 5.5649 9.10355 5.61307 9.10119C5.66125 9.09882 5.70788 9.08344 5.748 9.05667L9.00067 6.88867C9.03724 6.86432 9.06724 6.83132 9.08799 6.79259C9.10874 6.75386 9.11959 6.7106 9.11959 6.66667C9.11959 6.62273 9.10874 6.57947 9.08799 6.54074C9.06724 6.50201 9.03724 6.46901 9.00067 6.44467L5.74733 4.27667H5.748Z" fill="white" fill-opacity="0.4"/>
</svg>
